<svg width="160" height="40" viewBox="0 0 160 40" fill="none" xmlns="http://www.w3.org/2000/svg">
  <path d="M0 8C0 3.58172 3.58172 0 8 0H32C36.4183 0 40 3.58172 40 8V32C40 36.4183 36.4183 40 32 40H8C3.58172 40 0 36.4183 0 32V8Z" fill="#3A4373"/>
  <path d="M8.5 12H21.5M8.5 20H21.5M8.5 28H15.5" stroke="white" stroke-width="2.5" stroke-linecap="round" stroke-linejoin="round"/>
  <path d="M27 16L24 24L31 20L24 16L27 24" stroke="#E28222" stroke-width="2" stroke-linecap="round" stroke-linejoin="round"/>
  <path d="M48.556 29V12.6H61.468V15.72H52.164V19.224H60.556V22.344H52.164V25.88H61.58V29H48.556ZM68.7709 29.24C67.4149 29.24 66.1909 28.976 65.0989 28.448C64.0069 27.904 63.1469 27.144 62.5189 26.168C61.9069 25.176 61.6009 24.032 61.6009 22.736C61.6009 21.44 61.9069 20.304 62.5189 19.328C63.1469 18.336 64.0069 17.576 65.0989 17.048C66.1909 16.504 67.4149 16.232 68.7709 16.232C70.1269 16.232 71.3429 16.504 72.4189 17.048C73.5109 17.576 74.3709 18.336 74.9989 19.328C75.6269 20.304 75.9409 21.44 75.9409 22.736C75.9409 24.032 75.6269 25.176 74.9989 26.168C74.3709 27.144 73.5109 27.904 72.4189 28.448C71.3429 28.976 70.1269 29.24 68.7709 29.24ZM68.7709 26.12C69.9589 26.12 70.9309 25.768 71.6869 25.064C72.4429 24.344 72.8209 23.4 72.8209 22.232C72.8209 21.064 72.4429 20.128 71.6869 19.424C70.9309 18.704 69.9589 18.344 68.7709 18.344C67.5829 18.344 66.6109 18.704 65.8549 19.424C65.0989 20.128 64.7209 21.064 64.7209 22.232C64.7209 23.4 65.0989 24.344 65.8549 25.064C66.6109 25.768 67.5829 26.12 68.7709 26.12ZM78.8303 29V16.472H81.9103V29H78.8303ZM80.3783 14.36C79.7663 14.36 79.2503 14.16 78.8303 13.76C78.4263 13.36 78.2243 12.872 78.2243 12.296C78.2243 11.72 78.4263 11.24 78.8303 10.856C79.2503 10.456 79.7663 10.256 80.3783 10.256C80.9903 10.256 81.4983 10.448 81.9023 10.832C82.3223 11.2 82.5323 11.664 82.5323 12.224C82.5323 12.832 82.3223 13.344 81.9023 13.76C81.4983 14.16 80.9903 14.36 80.3783 14.36ZM89.4511 29.24C88.1111 29.24 86.9071 28.984 85.8391 28.472C84.7711 27.944 83.9351 27.208 83.3311 26.264C82.7431 25.304 82.4491 24.192 82.4491 22.928C82.4491 21.664 82.7511 20.544 83.3551 19.568C83.9591 18.592 84.7951 17.84 85.8631 17.312C86.9471 16.768 88.1431 16.496 89.4511 16.496C90.5911 16.496 91.6031 16.68 92.4871 17.048C93.3871 17.416 94.1191 17.952 94.6831 18.656L92.5351 20.624C91.7631 19.68 90.7991 19.208 89.6431 19.208C88.8231 19.208 88.1191 19.448 87.5311 19.928C86.9431 20.392 86.6491 21.048 86.6491 21.896C86.6491 22.744 86.9431 23.4 87.5311 23.864C88.1191 24.328 88.8231 24.56 89.6431 24.56C90.8151 24.56 91.7791 24.088 92.5351 23.144L94.6831 25.112C94.1191 25.816 93.3871 26.36 92.4871 26.744C91.6031 27.112 90.5911 27.296 89.4511 27.296V29.24ZM97.8567 29V16.472H100.937V18.32C101.369 17.664 101.937 17.16 102.641 16.808C103.345 16.44 104.161 16.256 105.089 16.256C106.561 16.256 107.705 16.68 108.521 17.528C109.337 18.376 109.745 19.624 109.745 21.272V29H106.665V21.968C106.665 21.04 106.457 20.352 106.041 19.904C105.625 19.44 105.033 19.208 104.265 19.208C103.417 19.208 102.745 19.496 102.249 20.072C101.753 20.632 101.505 21.44 101.505 22.496V29H98.4247H97.8567ZM117.272 29V12.6H120.832V25.88H129.056V29H117.272ZM143.588 22.736C143.588 24.032 143.274 25.168 142.646 26.144C142.018 27.12 141.158 27.888 140.066 28.448C138.974 29.008 137.75 29.288 136.394 29.288C135.038 29.288 133.814 29.008 132.722 28.448C131.63 27.888 130.77 27.12 130.142 26.144C129.514 25.168 129.2 24.032 129.2 22.736C129.2 21.44 129.514 20.304 130.142 19.328C130.77 18.352 131.63 17.584 132.722 17.024C133.814 16.464 135.038 16.184 136.394 16.184C137.75 16.184 138.974 16.464 140.066 17.024C141.158 17.584 142.018 18.352 142.646 19.328C143.274 20.304 143.588 21.44 143.588 22.736ZM140.42 22.736C140.42 21.856 140.13 21.168 139.55 20.672C138.97 20.16 137.546 19.904 136.394 19.904C135.242 19.904 134.562 20.16 133.982 20.672C133.402 21.168 133.112 21.856 133.112 22.736C133.112 23.616 133.402 24.312 133.982 24.824C134.562 25.32 135.242 25.568 136.394 25.568C137.546 25.568 138.97 25.32 139.55 24.824C140.13 24.312 140.42 23.616 140.42 22.736ZM148.868 29.144L143.804 16.472H147.124L150.62 25.52L154.14 16.472H157.388L152.3 29.144H148.868Z" fill="#3A4373"/>
</svg>
